<svg width="20" height="19" viewBox="0 0 20 19" fill="none" xmlns="http://www.w3.org/2000/svg">
<path d="M20 2.75V16.25C20 16.8687 19.8042 17.3984 19.4125 17.8391C19.0208 18.2797 18.55 18.5 18 18.5H2C1.45 18.5 0.979167 18.2797 0.5875 17.8391C0.195833 17.3984 0 16.8687 0 16.25V2.75C0 2.13125 0.195833 1.60156 0.5875 1.16094C0.979167 0.720312 1.45 0.5 2 0.5H18C18.55 0.5 19.0208 0.720312 19.4125 1.16094C19.8042 1.60156 20 2.13125 20 2.75ZM2 5H18V2.75H2V5ZM2 9.5V16.25H18V9.5H2Z" fill="currentColor"/>
</svg>
