<svg width="25" height="28" viewBox="0 0 25 28" fill="none" xmlns="http://www.w3.org/2000/svg">
<path d="M20.2805 0.200195H4.70276C2.10695 0.203972 0.00343328 2.51784 0 5.37323V22.5087C0.00343328 25.3743 2.11449 27.6964 4.71954 27.7002H8.59375H16.4062H20.2972C22.8931 27.6964 24.9966 25.3825 25 22.5272V5.39169C24.9966 2.52613 22.8855 0.203972 20.2805 0.200195ZM9.375 1.91895H15.625V8.79395H9.375V1.91895ZM7.8125 25.9814H4.71954C2.9767 25.9795 1.56431 24.4258 1.5625 22.5087V19.1064H7.8125V25.9814ZM15.625 25.9814H9.375V19.1064H15.625V25.9814ZM23.4375 22.5272C23.4358 24.4341 22.0308 25.9796 20.2972 25.9814H17.1875V19.1064H23.4375V22.5272ZM23.4375 17.3877H1.5625V5.37323C1.56422 3.46628 2.96917 1.92083 4.70276 1.91895H7.8125V9.65332C7.8125 9.65301 7.8125 9.65364 7.8125 9.65332C7.81279 10.1277 8.1625 10.513 8.59375 10.5127H16.4062H23.4375V17.3877ZM23.4375 8.79395H17.1875V1.91895H20.2805C22.0233 1.92094 23.4357 3.47457 23.4375 5.39169V8.79395Z" fill="white"/>
</svg>
