<svg width="20" height="19" viewBox="0 0 20 19" fill="none" xmlns="http://www.w3.org/2000/svg">
<path d="M4 18.5C2.9 18.5 1.95833 18.0594 1.175 17.1781C0.391667 16.2969 0 15.2375 0 14V5C0 3.7625 0.391667 2.70312 1.175 1.82187C1.95833 0.940625 2.9 0.5 4 0.5H16C17.1 0.5 18.0417 0.940625 18.825 1.82187C19.6083 2.70312 20 3.7625 20 5V14C20 15.2375 19.6083 16.2969 18.825 17.1781C18.0417 18.0594 17.1 18.5 16 18.5H4ZM4 5H16C16.3667 5 16.7167 5.04688 17.05 5.14062C17.3833 5.23438 17.7 5.38438 18 5.59062V5C18 4.38125 17.8042 3.85156 17.4125 3.41094C17.0208 2.97031 16.55 2.75 16 2.75H4C3.45 2.75 2.97917 2.97031 2.5875 3.41094C2.19583 3.85156 2 4.38125 2 5V5.59062C2.3 5.38438 2.61667 5.23438 2.95 5.14062C3.28333 5.04688 3.63333 5 4 5ZM2.15 8.65625L13.275 11.6937C13.425 11.7312 13.575 11.7312 13.725 11.6937C13.875 11.6562 14.0167 11.5812 14.15 11.4688L17.625 8.20625C17.4417 7.925 17.2083 7.69531 16.925 7.51719C16.6417 7.33906 16.3333 7.25 16 7.25H4C3.56667 7.25 3.1875 7.37656 2.8625 7.62969C2.5375 7.88281 2.3 8.225 2.15 8.65625Z" fill="#757575"/>
</svg>
