<svg width="20" height="21" viewBox="0 0 20 21" fill="none" xmlns="http://www.w3.org/2000/svg">
<path d="M4 20.5C2.9 20.5 1.95833 20.0104 1.175 19.0312C0.391667 18.0521 0 16.875 0 15.5V5.5C0 4.125 0.391667 2.94792 1.175 1.96875C1.95833 0.989583 2.9 0.5 4 0.5H16C17.1 0.5 18.0417 0.989583 18.825 1.96875C19.6083 2.94792 20 4.125 20 5.5V15.5C20 16.875 19.6083 18.0521 18.825 19.0312C18.0417 20.0104 17.1 20.5 16 20.5H4ZM4 5.5H16C16.3667 5.5 16.7167 5.55208 17.05 5.65625C17.3833 5.76042 17.7 5.92708 18 6.15625V5.5C18 4.8125 17.8042 4.22396 17.4125 3.73438C17.0208 3.24479 16.55 3 16 3H4C3.45 3 2.97917 3.24479 2.5875 3.73438C2.19583 4.22396 2 4.8125 2 5.5V6.15625C2.3 5.92708 2.61667 5.76042 2.95 5.65625C3.28333 5.55208 3.63333 5.5 4 5.5ZM2.15 9.5625L13.275 12.9375C13.425 12.9792 13.575 12.9792 13.725 12.9375C13.875 12.8958 14.0167 12.8125 14.15 12.6875L17.625 9.0625C17.4417 8.75 17.2083 8.49479 16.925 8.29688C16.6417 8.09896 16.3333 8 16 8H4C3.56667 8 3.1875 8.14062 2.8625 8.42188C2.5375 8.70312 2.3 9.08333 2.15 9.5625Z" fill="currentColor"/>
</svg>
