<svg width="20" height="21" viewBox="0 0 20 21" fill="none" xmlns="http://www.w3.org/2000/svg">
<path d="M8.88889 17.925V11.075L2.22222 7.6V14.45L8.88889 17.925ZM11.1111 17.925L17.7778 14.45V7.6L11.1111 11.075V17.925ZM10 9.35L16.5833 5.925L10 2.5L3.41667 5.925L10 9.35ZM1.11111 16.2C0.759259 16.0167 0.486111 15.775 0.291667 15.475C0.0972222 15.175 0 14.8417 0 14.475V6.525C0 6.15833 0.0972222 5.825 0.291667 5.525C0.486111 5.225 0.759259 4.98333 1.11111 4.8L8.88889 0.775C9.24074 0.591667 9.61111 0.5 10 0.5C10.3889 0.5 10.7593 0.591667 11.1111 0.775L18.8889 4.8C19.2407 4.98333 19.5139 5.225 19.7083 5.525C19.9028 5.825 20 6.15833 20 6.525V14.475C20 14.8417 19.9028 15.175 19.7083 15.475C19.5139 15.775 19.2407 16.0167 18.8889 16.2L11.1111 20.225C10.7593 20.4083 10.3889 20.5 10 20.5C9.61111 20.5 9.24074 20.4083 8.88889 20.225L1.11111 16.2Z" fill="currentColor"/>
</svg>
