<svg width="20" height="21" viewBox="0 0 20 21" fill="none" xmlns="http://www.w3.org/2000/svg">
<path d="M15.2381 18.5952C15.3651 18.5952 15.4762 18.5476 15.5714 18.4524C15.6667 18.3571 15.7143 18.246 15.7143 18.119C15.7143 17.9921 15.6667 17.881 15.5714 17.7857C15.4762 17.6905 15.3651 17.6429 15.2381 17.6429C15.1111 17.6429 15 17.6905 14.9048 17.7857C14.8095 17.881 14.7619 17.9921 14.7619 18.119C14.7619 18.246 14.8095 18.3571 14.9048 18.4524C15 18.5476 15.1111 18.5952 15.2381 18.5952ZM14.7619 16.6905H15.7143V12.881H14.7619V16.6905ZM1.90476 18.5952C1.38095 18.5952 0.93254 18.4087 0.559524 18.0357C0.186508 17.6627 0 17.2143 0 16.6905V6.21429C0 5.69048 0.186508 5.24206 0.559524 4.86905C0.93254 4.49603 1.38095 4.30952 1.90476 4.30952H5.71429V2.40476C5.71429 1.88095 5.90079 1.43254 6.27381 1.05952C6.64683 0.686508 7.09524 0.5 7.61905 0.5H11.4286C11.9524 0.5 12.4008 0.686508 12.7738 1.05952C13.1468 1.43254 13.3333 1.88095 13.3333 2.40476V4.30952H17.1429C17.6667 4.30952 18.1151 4.49603 18.4881 4.86905C18.8611 5.24206 19.0476 5.69048 19.0476 6.21429V10.2857C18.7619 10.0794 18.4603 9.90079 18.1429 9.75C17.8254 9.59921 17.4921 9.46825 17.1429 9.35714V6.21429H1.90476V16.6905H8.64286C8.69048 17.0238 8.7619 17.3492 8.85714 17.6667C8.95238 17.9841 9.07143 18.2937 9.21429 18.5952H1.90476ZM7.61905 4.30952H11.4286V2.40476H7.61905V4.30952ZM15.2381 20.5C13.9206 20.5 12.7976 20.0357 11.869 19.1071C10.9405 18.1786 10.4762 17.0556 10.4762 15.7381C10.4762 14.4206 10.9405 13.2976 11.869 12.369C12.7976 11.4405 13.9206 10.9762 15.2381 10.9762C16.5556 10.9762 17.6786 11.4405 18.6071 12.369C19.5357 13.2976 20 14.4206 20 15.7381C20 17.0556 19.5357 18.1786 18.6071 19.1071C17.6786 20.0357 16.5556 20.5 15.2381 20.5Z" fill="currentColor"/>
</svg>
