<svg width="20" height="19" viewBox="0 0 20 19" fill="none" xmlns="http://www.w3.org/2000/svg">
<path d="M15.2381 16.7857C15.3651 16.7857 15.4762 16.7429 15.5714 16.6571C15.6667 16.5714 15.7143 16.4714 15.7143 16.3571C15.7143 16.2429 15.6667 16.1429 15.5714 16.0571C15.4762 15.9714 15.3651 15.9286 15.2381 15.9286C15.1111 15.9286 15 15.9714 14.9048 16.0571C14.8095 16.1429 14.7619 16.2429 14.7619 16.3571C14.7619 16.4714 14.8095 16.5714 14.9048 16.6571C15 16.7429 15.1111 16.7857 15.2381 16.7857ZM14.7619 15.0714H15.7143V11.6429H14.7619V15.0714ZM1.90476 16.7857C1.38095 16.7857 0.93254 16.6179 0.559524 16.2821C0.186508 15.9464 0 15.5429 0 15.0714V5.64286C0 5.17143 0.186508 4.76786 0.559524 4.43214C0.93254 4.09643 1.38095 3.92857 1.90476 3.92857H5.71429V2.21429C5.71429 1.74286 5.90079 1.33929 6.27381 1.00357C6.64683 0.667857 7.09524 0.5 7.61905 0.5H11.4286C11.9524 0.5 12.4008 0.667857 12.7738 1.00357C13.1468 1.33929 13.3333 1.74286 13.3333 2.21429V3.92857H17.1429C17.6667 3.92857 18.1151 4.09643 18.4881 4.43214C18.8611 4.76786 19.0476 5.17143 19.0476 5.64286V9.30714C18.7619 9.12143 18.4603 8.96071 18.1429 8.825C17.8254 8.68929 17.4921 8.57143 17.1429 8.47143V5.64286H1.90476V15.0714H8.64286C8.69048 15.3714 8.7619 15.6643 8.85714 15.95C8.95238 16.2357 9.07143 16.5143 9.21429 16.7857H1.90476ZM7.61905 3.92857H11.4286V2.21429H7.61905V3.92857ZM15.2381 18.5C13.9206 18.5 12.7976 18.0821 11.869 17.2464C10.9405 16.4107 10.4762 15.4 10.4762 14.2143C10.4762 13.0286 10.9405 12.0179 11.869 11.1821C12.7976 10.3464 13.9206 9.92857 15.2381 9.92857C16.5556 9.92857 17.6786 10.3464 18.6071 11.1821C19.5357 12.0179 20 13.0286 20 14.2143C20 15.4 19.5357 16.4107 18.6071 17.2464C17.6786 18.0821 16.5556 18.5 15.2381 18.5Z" fill="#757575"/>
</svg>
