<svg width="60" height="50" viewBox="0 0 60 50" fill="none" xmlns="http://www.w3.org/2000/svg">
<path fill-rule="evenodd" clip-rule="evenodd" d="M30.4746 0.0880218C30.164 -0.0293406 29.828 -0.0293406 29.5172 0.0880218L7.08771 8.56008C6.75088 8.68722 6.47379 8.93979 6.29131 9.26288L0.319679 17.9498C0.0175719 18.3893 -0.077458 18.9676 0.0648073 19.5009C0.207073 20.0341 0.568935 20.4561 1.03528 20.6321L6.0654 22.532L6.06949 37.3422C6.07011 39.5573 7.32095 41.5235 9.17512 42.2239L29.4344 49.8775C29.6137 49.9586 29.8049 50.0002 29.9973 50C30.1917 50.0008 30.3849 49.9593 30.5659 49.8773L50.8243 42.224C52.6789 41.5235 53.9297 39.5566 53.9299 37.3411L53.9308 22.5336L58.9647 20.6321C59.4311 20.4561 59.7929 20.0341 59.9352 19.5009C60.0774 18.9676 59.9825 18.3893 59.6803 17.9498L53.6312 9.14998C53.451 8.88111 53.2008 8.67212 52.9042 8.56008L30.4746 0.0880218ZM8.10947 12.2016L27.4919 19.5227L23.4069 25.4651L4.02453 18.144L8.10947 12.2016ZM29.9997 16.8499L47.6373 10.1879L29.9959 3.52448L12.3585 10.1863L29.9997 16.8499ZM9.09745 37.3411L9.09367 23.676L23.4648 29.1042C24.0734 29.3341 24.7436 29.1043 25.1378 28.5309L28.4824 23.6653L28.4821 45.9005L10.1325 38.9684C9.51454 38.7349 9.0976 38.0795 9.09745 37.3411ZM50.9028 23.6772L36.5351 29.1042C35.9267 29.3341 35.2564 29.1043 34.8622 28.5309L31.5119 23.6571L31.5173 45.9007L49.8668 38.9686C50.485 38.7351 50.902 38.0795 50.902 37.341L50.9028 23.6772ZM36.5931 25.4651L32.5065 19.5204L51.8889 12.1993L55.9755 18.144L36.5931 25.4651Z" fill="white"/>
<path d="M48.3709 29.8026L42.7492 32.2413C42.5604 32.3216 42.3904 32.571 42.3693 32.7981C42.3483 33.0255 42.4842 33.1446 42.673 33.0643L48.2948 30.6256C48.4834 30.5453 48.6536 30.2959 48.6746 30.0688C48.6957 29.8414 48.5597 29.7223 48.3709 29.8026Z" fill="white"/>
<path fill-rule="evenodd" clip-rule="evenodd" d="M48.7452 27.3397C50.0337 26.792 50.9619 27.6055 50.8183 29.1568C50.6746 30.7079 49.5136 32.4094 48.2249 32.9573L39.119 36.8773C37.8303 37.4251 36.9022 36.6117 37.0459 35.0604C37.1896 33.5091 38.3506 31.8075 39.6392 31.2598L48.7452 27.3397ZM38.3644 34.5005C38.4003 34.1127 38.7665 33.655 39.1824 33.4782C39.5983 33.3015 39.9062 33.4726 39.8703 33.8603C39.8345 34.2481 39.4682 34.7059 39.0523 34.8826C38.6365 35.0594 38.3285 34.8883 38.3644 34.5005ZM40.6518 33.2317C40.444 33.32 40.2608 33.5489 40.2428 33.7428C40.2249 33.9367 40.3789 34.0223 40.5867 33.9339C40.7947 33.8456 40.9778 33.6167 40.9958 33.4228C41.0138 33.2289 40.8597 33.1433 40.6518 33.2317ZM48.2029 31.6183C48.8473 31.3443 49.4277 30.4935 49.4996 29.7178C49.5714 28.9423 49.1074 28.5356 48.463 28.8095L42.8414 31.2482C42.1971 31.5222 41.6165 32.3729 41.5448 33.1486C41.4728 33.9242 41.937 34.331 42.5812 34.057L48.2029 31.6183Z" fill="white"/>
</svg>
