<svg width="31" height="30" viewBox="0 0 31 30" fill="none" xmlns="http://www.w3.org/2000/svg">
<rect width="30" height="30" transform="translate(0.5)"/>
<path d="M27.7579 12.5529H26.751V12.501H15.501V17.501H22.5654C21.5347 20.4116 18.7654 22.501 15.501 22.501C11.3591 22.501 8.00098 19.1429 8.00098 15.001C8.00098 10.8591 11.3591 7.50098 15.501 7.50098C17.4129 7.50098 19.1522 8.22223 20.4766 9.40035L24.0122 5.86473C21.7797 3.7841 18.7935 2.50098 15.501 2.50098C8.59785 2.50098 3.00098 8.09785 3.00098 15.001C3.00098 21.9041 8.59785 27.501 15.501 27.501C22.4041 27.501 28.001 21.9041 28.001 15.001C28.001 14.1629 27.9147 13.3447 27.7579 12.5529Z" fill="white"/>
<path d="M4.44043 9.18285L8.5473 12.1947C9.65855 9.44348 12.3498 7.50098 15.4992 7.50098C17.4111 7.50098 19.1504 8.22223 20.4748 9.40035L24.0104 5.86473C21.7779 3.7841 18.7917 2.50098 15.4992 2.50098C10.6979 2.50098 6.53418 5.2116 4.44043 9.18285Z" fill="white"/>
<path d="M15.4992 27.5004C18.728 27.5004 21.6617 26.2648 23.8798 24.2554L20.0111 20.9817C18.7561 21.9323 17.1961 22.5004 15.4992 22.5004C12.248 22.5004 9.48734 20.4273 8.44734 17.5342L4.37109 20.6748C6.43984 24.7229 10.6411 27.5004 15.4992 27.5004Z" fill="white"/>
<path d="M27.7569 12.5509L27.7469 12.499H26.75H15.5V17.499H22.5644C22.0694 18.8971 21.17 20.1028 20.01 20.9809L20.0119 20.9796L23.8806 24.2534C23.6069 24.5021 28 21.249 28 14.999C28 14.1609 27.9137 13.3428 27.7569 12.5509Z" fill="white"/>
</svg>
