<svg width="18" height="20" viewBox="0 0 18 20" fill="none" xmlns="http://www.w3.org/2000/svg">
<path d="M0 17V15H2.25V8C2.25 6.61667 2.71875 5.3875 3.65625 4.3125C4.59375 3.2375 5.8125 2.53333 7.3125 2.2V1.5C7.3125 1.08333 7.47656 0.729167 7.80469 0.4375C8.13281 0.145833 8.53125 0 9 0C9.46875 0 9.86719 0.145833 10.1953 0.4375C10.5234 0.729167 10.6875 1.08333 10.6875 1.5V2.2C12.1875 2.53333 13.4062 3.2375 14.3438 4.3125C15.2812 5.3875 15.75 6.61667 15.75 8V15H18V17H0ZM9 20C8.38125 20 7.85156 19.8042 7.41094 19.4125C6.97031 19.0208 6.75 18.55 6.75 18H11.25C11.25 18.55 11.0297 19.0208 10.5891 19.4125C10.1484 19.8042 9.61875 20 9 20ZM4.5 15H13.5V8C13.5 6.9 13.0594 5.95833 12.1781 5.175C11.2969 4.39167 10.2375 4 9 4C7.7625 4 6.70312 4.39167 5.82187 5.175C4.94062 5.95833 4.5 6.9 4.5 8V15Z" fill="white"/>
</svg>
