<svg width="30" height="20" viewBox="0 0 30 20" fill="none" xmlns="http://www.w3.org/2000/svg">
<path d="M5.41549 1.90783C6.36417 0.703498 7.62257 0 9.10096 0C11.981 0 13.8905 2.54095 14.2559 6.34747C14.3743 7.58362 14.3732 9.32641 14.372 11.345C14.3719 11.552 14.3718 11.762 14.3718 11.9745V19.5366H10.4112V13.9435C10.4112 13.9435 10.4031 9.15653 10.3789 8.26189C10.2726 4.36541 8.3636 1.91706 5.4151 1.91443C4.52552 3.05011 4.04887 4.43868 3.97857 6.56185C3.96891 6.85798 3.97134 7.90763 3.97454 9.29104C3.9762 10.0078 3.97807 10.8142 3.97857 11.6518C3.98151 15.2974 3.97857 19.5374 3.97857 19.5374H0.0179318V10.9296C0.0179318 10.6347 0.0134809 10.3372 0.00901839 10.0386C3.53262e-05 9.43792 -0.00901859 8.83259 0.0179318 8.2332C0.0626804 7.23399 0.205729 6.25171 0.591592 5.3392C1.47483 3.2487 3.28458 1.90271 5.21392 1.90271C5.28132 1.90271 5.34877 1.90459 5.41549 1.90772V1.90783Z" fill="white"/>
<path d="M29.9819 11.7669C30.0089 11.1675 29.9998 10.5621 29.9909 9.96145C29.9864 9.66282 29.9819 9.36538 29.9819 9.07043V0.46264H26.0213C26.0213 0.46264 26.0184 4.70262 26.0213 8.34822C26.0218 9.18581 26.0236 9.99214 26.0253 10.7089C26.0285 12.0924 26.0309 13.142 26.0213 13.4382C25.951 15.5614 25.4743 16.9499 24.5848 18.0856C21.6363 18.0831 19.7274 15.6346 19.621 11.7382C19.5968 10.8435 19.5866 8.62342 19.5866 6.05211V0.458984L15.6289 0.463353V8.02543C15.6289 8.238 15.6287 8.44788 15.6287 8.65494C15.6274 10.6736 15.6264 12.4163 15.7448 13.6525C16.1094 17.459 18.0189 20 20.899 20C22.3774 20 23.6358 19.2964 24.5845 18.0921C24.6512 18.0952 24.7186 18.0971 24.786 18.0971C26.7153 18.0971 28.5251 16.7511 29.4083 14.6607C29.7942 13.7481 29.9372 12.7659 29.9819 11.7666L29.9819 11.7669Z" fill="white"/>
</svg>
