<svg width="5" height="15" viewBox="0 0 5 15" fill="none" xmlns="http://www.w3.org/2000/svg">
<path d="M2.625 3.75C1.59375 3.75 0.75 2.90625 0.75 1.875C0.75 0.84375 1.59375 0 2.625 0C3.65625 0 4.5 0.84375 4.5 1.875C4.5 2.90625 3.65625 3.75 2.625 3.75ZM2.625 5.625C3.65625 5.625 4.5 6.46875 4.5 7.5C4.5 8.53125 3.65625 9.375 2.625 9.375C1.59375 9.375 0.75 8.53125 0.75 7.5C0.75 6.46875 1.59375 5.625 2.625 5.625ZM2.625 11.25C3.65625 11.25 4.5 12.0938 4.5 13.125C4.5 14.1562 3.65625 15 2.625 15C1.59375 15 0.75 14.1562 0.75 13.125C0.75 12.0938 1.59375 11.25 2.625 11.25Z" fill="white"/>
</svg>
