<svg width="20" height="19" viewBox="0 0 20 19" fill="none" xmlns="http://www.w3.org/2000/svg">
<path d="M9 15.125H11V14H12C12.2833 14 12.5208 13.8922 12.7125 13.6766C12.9042 13.4609 13 13.1937 13 12.875V9.5C13 9.18125 12.9042 8.91406 12.7125 8.69844C12.5208 8.48281 12.2833 8.375 12 8.375H9V7.25H13V5H11V3.875H9V5H8C7.71667 5 7.47917 5.10781 7.2875 5.32344C7.09583 5.53906 7 5.80625 7 6.125V9.5C7 9.81875 7.09583 10.0859 7.2875 10.3016C7.47917 10.5172 7.71667 10.625 8 10.625H11V11.75H7V14H9V15.125ZM2 18.5C1.45 18.5 0.979167 18.2797 0.5875 17.8391C0.195833 17.3984 0 16.8687 0 16.25V2.75C0 2.13125 0.195833 1.60156 0.5875 1.16094C0.979167 0.720312 1.45 0.5 2 0.5H18C18.55 0.5 19.0208 0.720312 19.4125 1.16094C19.8042 1.60156 20 2.13125 20 2.75V16.25C20 16.8687 19.8042 17.3984 19.4125 17.8391C19.0208 18.2797 18.55 18.5 18 18.5H2ZM2 16.25H18V2.75H2V16.25Z" fill="#757575"/>
</svg>
