<svg width="20" height="21" viewBox="0 0 20 21" fill="none" xmlns="http://www.w3.org/2000/svg">
<path d="M9 16.75H11V15.5H12C12.2833 15.5 12.5208 15.3802 12.7125 15.1406C12.9042 14.901 13 14.6042 13 14.25V10.5C13 10.1458 12.9042 9.84896 12.7125 9.60938C12.5208 9.36979 12.2833 9.25 12 9.25H9V8H13V5.5H11V4.25H9V5.5H8C7.71667 5.5 7.47917 5.61979 7.2875 5.85938C7.09583 6.09896 7 6.39583 7 6.75V10.5C7 10.8542 7.09583 11.151 7.2875 11.3906C7.47917 11.6302 7.71667 11.75 8 11.75H11V13H7V15.5H9V16.75ZM2 20.5C1.45 20.5 0.979167 20.2552 0.5875 19.7656C0.195833 19.276 0 18.6875 0 18V3C0 2.3125 0.195833 1.72396 0.5875 1.23438C0.979167 0.744792 1.45 0.5 2 0.5H18C18.55 0.5 19.0208 0.744792 19.4125 1.23438C19.8042 1.72396 20 2.3125 20 3V18C20 18.6875 19.8042 19.276 19.4125 19.7656C19.0208 20.2552 18.55 20.5 18 20.5H2ZM2 18H18V3H2V18Z" fill="currentColor"/>
</svg>
